<svg xmlns="http://www.w3.org/2000/svg" viewBox="0 0 32 32" fill="none">
  <rect width="32" height="32" rx="6" fill="#24292f"/>
  <path
    fill="#ffffff"
    d="M16 4C9.37 4 4 9.37 4 16c0 5.47 3.55 10.1 8.47 11.74.62.11.85-.27.85-.6 0-.3-.01-1.08-.02-2.12-3.46.75-4.19-1.67-4.19-1.67-.57-1.44-1.39-1.82-1.39-1.82-1.13-.77.09-.76.09-.76 1.24.09 1.9 1.28 1.9 1.28 1.1 1.87 2.89 1.33 3.59 1.02.11-.79.44-1.33.8-1.64-2.76-.31-5.66-1.38-5.66-6.14 0-1.36.49-2.46 1.29-3.33-.13-.32-.56-1.59.12-3.31 0 0 1.05-.34 3.45 1.28.9-.25 1.86-.38 2.82-.38.96 0 1.92.13 2.82.38 2.4-1.62 3.45-1.28 3.45-1.28.68 1.72.25 2.99.12 3.31.8.87 1.29 1.97 1.29 3.33 0 4.77-2.91 5.82-5.68 6.14.45.38.85 1.14.85 2.3 0 1.66-.02 3-.02 3.41 0 .33.22.72.86.6A8.98 8.98 0 0028 16c0-6.63-5.37-12-12-12z"
  />
</svg>
